<svg class="img-fluid" id="outputsvg" xmlns="http://www.w3.org/2000/svg" style="transform: none; transform-origin: 50% 50% 0px; cursor: move;" width="64" height="64" viewBox="0 0 640 640"><g id="l5sJMM5DnCtAvNCbSKDW7W5" fill="rgb(0,0,0)" style="transform: none;"><g><path id="p3Yz3qy0O" d="M0 320 l0 -320 320 0 320 0 0 320 0 320 -320 0 -320 0 0 -320z m484 98 c0 -55 -6 -93 -14 -103 -10 -12 -36 -15 -126 -15 -125 0 -158 9 -180 51 -14 29 -20 140 -7 153 4 3 79 5 167 4 l161 -3 -1 -87z m-60 -237 c21 -18 20 -44 -1 -62 -24 -20 -163 -20 -187 0 -20 17 -21 39 -1 61 18 20 164 22 189 1z"/></g></g><g id="l6aP6KMrkpp5HfxTkkSo0VW" fill="rgb(0,117,144)" style="transform: none;"><g><path id="p2iQNQRsu" d="M350 512 c0 -31 23 -58 55 -64 15 -2 21 -12 23 -40 2 -20 12 -44 23 -53 10 -10 19 -26 19 -37 0 -11 7 -18 19 -18 25 0 34 51 29 160 l-3 75 -82 3 -83 3 0 -29z"/></g></g><g id="l2dybbQBrJGB0Ny1eqmODrb" fill="rgb(0,138,169)" style="transform: none;"><g><path id="pIFXy82L5" d="M290 520 c0 -18 -7 -20 -63 -20 -36 0 -68 -5 -75 -12 -7 -7 -12 -33 -12 -58 0 -56 12 -70 64 -70 25 0 47 -7 60 -19 17 -15 42 -20 134 -24 92 -4 112 -2 108 9 -3 7 -1 16 4 19 15 9 12 25 -3 25 -23 0 -47 35 -47 69 0 21 -6 33 -17 37 -34 10 -48 21 -58 42 -8 18 -18 22 -52 22 -36 0 -43 -3 -43 -20z"/></g></g><g id="l4czak5EQXspqVZarm98ico" fill="rgb(255,165,0)" style="transform: none;"><g><path id="pNDSu7yJp" d="M350 230 c-8 -5 -23 -7 -32 -4 -22 7 -25 -26 -6 -56 10 -16 10 -24 0 -40 -20 -32 -15 -58 11 -59 12 0 39 -3 59 -7 33 -5 41 -2 68 24 40 41 40 83 1 123 -30 30 -72 38 -101 19z"/></g></g><g id="lPZ3ADRCMi7d2mAt5Fmu0M" fill="rgb(55,208,238)" style="transform: none;"><g><path id="p82IHIaNV" d="M127 533 c-11 -11 -8 -153 3 -153 6 0 10 -13 10 -28 0 -16 8 -36 18 -45 26 -24 126 -39 236 -35 81 2 101 6 110 21 8 12 8 22 0 35 -9 14 -28 18 -100 20 -70 2 -93 7 -109 22 -12 11 -38 20 -64 22 -88 6 -83 73 5 73 27 -1 57 -5 67 -9 15 -7 17 -2 17 38 l0 46 -93 0 c-52 0 -97 -3 -100 -7z"/></g></g><g id="l2Hn9JisOETAQqXZshVVJTv" fill="rgb(255,206,41)" style="transform: none;"><g><path id="paxWM5mQP" d="M209 211 c-20 -20 -29 -39 -29 -61 0 -22 9 -41 29 -61 40 -40 82 -39 123 1 26 27 30 36 25 68 -13 78 -94 107 -148 53z"/></g></g><g id="l2OdRY6uab5xgg8uE1XQscP" fill="rgb(115,222,243)" style="transform: none;"><g><path id="puJOPZuPr" d="M120 386 c0 -48 22 -89 55 -104 14 -7 56 -12 93 -12 66 1 67 1 45 19 -12 10 -42 22 -66 25 -54 8 -82 35 -73 71 5 18 2 25 -8 25 -8 0 -21 3 -30 6 -13 5 -16 -1 -16 -30z"/></g></g><g id="l4zI5glU6XZPKnbnkCG6DoC" fill="rgb(255,255,255)" style="transform: none;"><g><path id="pGoQrnzhp" d="M147 383 c-22 -21 30 -93 68 -93 26 0 25 19 -2 32 -15 7 -33 23 -39 36 -14 29 -19 33 -27 25z"/></g></g></svg>